HIERARCHY
ROOT Hips
{
 OFFSET 0.000000 0.000000 0.000000
 CHANNELS 6 Xposition Yposition Zposition Yrotation Xrotation Zrotation
 JOINT Chest
 {
  OFFSET 0.000000 14.374500 -0.011500
  CHANNELS 3 Yrotation Xrotation Zrotation
  JOINT Chest2
  {
   OFFSET 0.000000 9.203400 0.023400
   CHANNELS 3 Yrotation Xrotation Zrotation
   JOINT Chest3
   {
    OFFSET 0.000000 9.162700 0.000000
    CHANNELS 3 Yrotation Xrotation Zrotation
    JOINT Chest4
    {
     OFFSET 0.000000 9.153300 0.000000
     CHANNELS 3 Yrotation Xrotation Zrotation
     JOINT Neck
     {
      OFFSET 0.000000 13.353600 0.000000
      CHANNELS 3 Yrotation Xrotation Zrotation
      JOINT Head
      {
       OFFSET 0.000000 8.573800 0.049400
       CHANNELS 3 Yrotation Xrotation Zrotation
       End Site
       {
        OFFSET 0.000000 16.219200 0.026100
       }
      }
     }
     JOINT RightCollar
     {
      OFFSET -2.497100 8.876100 0.000000
      CHANNELS 3 Yrotation Xrotation Zrotation
      JOINT RightShoulder
      {
       OFFSET -12.289200 0.000000 0.000000
       CHANNELS 3 Yrotation Xrotation Zrotation
       JOINT RightElbow
       {
        OFFSET 0.000000 -28.194900 0.000000
        CHANNELS 3 Yrotation Xrotation Zrotation
        JOINT RightWrist
        {
         OFFSET 0.000000 -23.009700 0.007900
         CHANNELS 3 Yrotation Xrotation Zrotation
         End Site
         {
          OFFSET 0.000000 -17.151500 0.000000
         }
        }
       }
      }
     }
     JOINT LeftCollar
     {
      OFFSET 2.497100 8.876100 0.000000
      CHANNELS 3 Yrotation Xrotation Zrotation
      JOINT LeftShoulder
      {
       OFFSET 12.289200 0.000000 0.000000
       CHANNELS 3 Yrotation Xrotation Zrotation
       JOINT LeftElbow
       {
        OFFSET 0.000000 -28.194900 0.000000
        CHANNELS 3 Yrotation Xrotation Zrotation
        JOINT LeftWrist
        {
         OFFSET 0.000000 -23.009700 0.007900
         CHANNELS 3 Yrotation Xrotation Zrotation
         End Site
         {
          OFFSET 0.000000 -17.151500 0.000000
         }
        }
       }
      }
     }
    }
   }
  }
 }
 JOINT RightHip
 {
  OFFSET -11.777600 0.056700 0.005700
  CHANNELS 3 Yrotation Xrotation Zrotation
  JOINT RightKnee
  {
   OFFSET 0.000000 -39.966000 -0.004200
   CHANNELS 3 Yrotation Xrotation Zrotation
   JOINT RightAnkle
   {
    OFFSET 0.000000 -41.981900 0.027400
    CHANNELS 3 Yrotation Xrotation Zrotation
    JOINT RightToe
    {
     OFFSET 0.000000 -9.910600 16.950100
     CHANNELS 3 Yrotation Xrotation Zrotation
     End Site
     {
      OFFSET 0.000000 -1.461000 6.191600
     }
    }
   }
  }
 }
 JOINT LeftHip
 {
  OFFSET 11.777600 0.056700 0.005700
  CHANNELS 3 Yrotation Xrotation Zrotation
  JOINT LeftKnee
  {
   OFFSET 0.000000 -39.966000 -0.004200
   CHANNELS 3 Yrotation Xrotation Zrotation
   JOINT LeftAnkle
   {
    OFFSET 0.000000 -41.981900 0.027400
    CHANNELS 3 Yrotation Xrotation Zrotation
    JOINT LeftToe
    {
     OFFSET 0.000000 -9.910600 16.950100
     CHANNELS 3 Yrotation Xrotation Zrotation
     End Site
     {
      OFFSET 0.000000 -1.461000 6.191600
     }
    }
   }
  }
 }
}
MOTION
Frames: 12
Frame Time: 0.008333
0.000000 91.618700 0.000000 0.000000 -5.767877 0.000000 0.000000 11.653817 0.000000 0.000000 -5.885947 0.000000 0.000000 -0.000000 0.000000 0.000000 -0.000000 0.000000 0.000000 12.528835 0.000000 0.000000 0.711642 0.000000 0.000000 -0.000000 0.000000 0.000000 0.000000 -90.000000 0.000000 -2.309062 0.000000 0.000000 2.309062 0.000000 0.000000 -0.000000 0.000000 0.000000 -0.000000 90.000000 0.000000 -2.309062 0.000000 0.000000 2.309062 0.000000 0.000000 8.520406 0.000000 0.000000 1.905762 0.000000 -0.000000 -4.658285 0.000000 0.000000 -0.000000 0.000000 0.000000 8.520406 0.000000 0.000000 1.905762 0.000000 -0.000000 -4.658285 0.000000 0.000000 -0.000000 0.000000
-2.083452 152.668155 75.845199 174.504806 -43.457592 -2.704299 4.833805 27.073284 3.398782 0.678723 4.736589 0.485174 1.092629 7.501829 0.788403 3.648651 21.974310 2.846238 0.542978 14.203858 -0.841435 0.763310 -10.830767 -1.001969 0.961377 -7.163921 0.081379 7.750570 -10.270268 -11.047798 61.636211 -66.659838 -38.394274 36.993595 32.089190 -3.708709 -10.635136 -10.954860 -0.950491 -7.984419 -13.904559 8.946855 -47.902751 -57.171014 18.777316 -20.498018 11.383270 14.410565 7.001110 -34.331921 1.680391 -79.766303 84.385271 -83.350420 1.532237 -24.742900 9.693329 0.121541 -0.318926 0.071868 0.545657 -29.380618 -2.439113 146.268867 71.117080 157.775310 -0.689528 -7.420832 -8.884743 0.174913 -6.341959 -0.630773
-2.708385 145.612334 77.039259 174.631800 -43.422646 -2.920055 4.804346 27.025785 3.542313 0.678008 4.740904 0.483530 1.092956 7.492084 0.792168 3.648536 21.970239 2.850895 0.567504 14.165853 -0.844105 0.792019 -10.864734 -1.010958 0.961015 -7.149641 0.073953 7.750819 -10.260405 -11.041657 61.647230 -66.652545 -38.412282 36.994299 32.079263 -3.701911 -10.623869 -10.943130 -0.947403 -7.981878 -13.855374 8.863081 -48.021734 -57.138716 18.938032 -20.461952 11.361919 14.422510 6.822055 -34.397836 1.832874 -80.054576 84.388808 -83.640094 1.570454 -24.860694 9.709591 0.067273 -0.215312 0.039329 0.374862 -29.391889 -2.283334 146.224645 71.156209 157.732635 -0.643098 -7.343615 -8.855591 0.087179 0.101725 0.050967
-3.224189 139.802622 78.021552 174.731509 -43.399549 -3.089437 4.781056 26.990130 3.657647 0.677221 4.738009 0.484003 1.091642 7.487733 0.792954 3.645895 21.965099 2.853577 0.598622 14.115868 -0.842927 0.811075 -10.882686 -1.017047 0.962829 -7.129136 0.066425 7.754366 -10.244418 -11.036911 61.672619 -66.650265 -38.447198 37.001306 32.065953 -3.687332 -10.592565 -10.928886 -0.886765 -7.977806 -13.818803 8.725544 -48.094414 -57.063482 19.103129 -20.402287 11.255604 14.407875 6.682126 -34.441993 1.957460 -80.254928 84.388156 -83.845680 1.593468 -24.961155 9.728665 0.028593 -0.124845 0.016715 0.239878 -29.395631 -2.159366 146.195988 71.187216 157.703179 -0.608538 -7.276252 -8.836050 0.042038 0.062534 0.024582
-3.597414 135.607736 78.729904 174.800647 -43.388961 -3.206774 4.754492 26.949512 3.739838 0.676787 4.735345 0.483622 1.092828 7.498980 0.788714 3.641772 21.923139 2.867124 0.623050 14.116083 -0.852672 0.836944 -10.910790 -1.023232 0.971650 -7.070338 0.046165 7.755923 -10.225047 -11.031010 61.702905 -66.651155 -38.486505 37.002032 32.065080 -3.686681 -10.572244 -10.874819 -0.883821 -7.961699 -13.772675 8.628017 -48.171841 -57.021023 19.249998 -20.381590 11.183019 14.390859 6.591246 -34.467306 2.044136 -80.409445 84.388320 -83.999960 1.598557 -25.031416 9.745484 0.009338 -0.061442 0.005458 0.145933 -29.392586 -2.073129 146.181494 71.209903 157.689100 -0.590075 -7.220292 -8.824394 0.016939 0.034723 0.009906
-3.836219 132.957821 79.177365 174.847339 -43.379864 -3.271059 4.732650 26.922842 3.780294 0.674200 4.724599 0.485937 1.090522 7.501077 0.787133 3.638976 21.907637 2.872893 0.652372 14.091490 -0.852932 0.867381 -10.935829 -1.030190 0.959207 -7.035332 0.043287 7.771591 -10.201396 -11.032463 61.741174 -66.653084 -38.528312 37.013553 32.060033 -3.669017 -10.556954 -10.838997 -0.872896 -7.943054 -13.717636 8.531591 -48.282244 -57.002146 19.405729 -20.348654 11.139575 14.391611 6.538694 -34.487836 2.085388 -80.552343 84.391011 -84.142054 1.588186 -25.073967 9.753597 0.001187 -0.023428 0.000694 0.089752 -29.392902 -2.032977 146.151616 71.230870 157.656742 -0.585362 -7.175729 -8.815101 0.003925 0.011222 0.002295
-3.970776 131.500579 79.422704 174.862359 -43.377112 -3.286598 4.722438 26.911716 3.788988 0.669165 4.709545 0.490324 1.092902 7.492479 0.787377 3.632190 21.906414 2.875133 0.685561 14.055469 -0.849119 0.907288 -10.959940 -1.039773 0.955429 -7.005588 0.037997 7.779626 -10.193955 -11.034996 61.750029 -66.654201 -38.535950 37.027463 32.041313 -3.631859 -10.545605 -10.805019 -0.855839 -7.918414 -13.660655 8.431904 -48.421423 -56.997713 19.571025 -20.315570 11.119745 14.402156 6.526254 -34.495713 2.095192 -80.667408 84.394369 -84.261621 1.579439 -25.089350 9.761003 -0.001583 -0.013936 -0.000926 0.071631 -29.391235 -2.025505 146.136911 71.239943 157.638356 -0.585769 -7.161083 -8.811947 0.001593 0.004877 0.000932
-4.035136 130.806787 79.539352 174.870185 -43.376000 -3.294159 4.714975 26.902263 3.794651 0.660219 4.695365 0.493750 1.094975 7.481240 0.789027 3.632756 21.929856 2.868758 0.716726 13.994655 -0.836970 0.956055 -10.984453 -1.054216 0.936083 -7.000264 0.045731 7.800666 -10.184622 -11.041545 61.735096 -66.663323 -38.531538 37.048505 32.031646 -3.610224 -10.542261 -10.788824 -0.832712 -7.894093 -13.601051 8.337636 -48.531118 -56.980951 19.753867 -20.324203 11.076789 14.372976 6.519571 -34.498909 2.099500 -80.756143 84.401547 -84.353958 1.577168 -25.102469 9.762887 -0.002963 -0.009481 -0.001733 0.060662 -29.389897 -2.021505 146.131529 71.244480 157.629640 -0.584706 -7.153468 -8.810513 0.000713 0.001633 0.000417
-4.062508 130.522182 79.587725 174.882962 -43.369970 -3.301201 4.694258 26.881953 3.794448 0.653624 4.689702 0.495944 1.071182 7.436496 0.798152 3.630605 21.950620 2.855549 0.766250 13.970697 -0.837299 1.008626 -11.010962 -1.074054 0.937768 -6.956513 0.040649 7.821340 -10.180002 -11.040279 61.745074 -66.659686 -38.540146 37.053877 32.022956 -3.585193 -10.512760 -10.741839 -0.849695 -7.880885 -13.532505 8.262468 -48.579949 -56.939679 19.925831 -20.283051 10.956031 14.354366 6.511675 -34.509091 2.103737 -80.868238 84.404030 -84.469999 1.568376 -25.108179 9.765638 -0.002064 -0.010285 -0.001207 0.049446 -29.395645 -2.024418 146.119519 71.247720 157.617185 -0.585657 -7.146039 -8.809861 0.000929 0.001428 0.000543
-4.071337 130.422658 79.605351 174.895945 -43.362779 -3.314261 4.673688 26.862564 3.801008 0.646285 4.683070 0.498521 1.064244 7.427122 0.799665 3.582035 21.896013 2.876773 0.828448 14.005765 -0.883437 1.067326 -11.055609 -1.094760 0.993516 -6.867948 -0.015797 7.811864 -10.191362 -11.031789 61.747859 -66.653401 -38.527160 37.045826 32.010363 -3.576772 -10.446100 -10.651111 -0.881701 -7.866588 -13.479190 8.156723 -48.646838 -56.906541 20.099306 -20.236515 10.864631 14.352447 6.498381 -34.514295 2.120296 -80.895861 84.397283 -84.501736 1.559371 -25.113574 9.766719 0.000788 -0.008102 0.000461 0.036248 -29.403160 -2.023316 146.132933 71.255556 157.636509 -0.576653 -7.135539 -8.817076 0.003104 0.000248 0.001815
-4.073407 130.393911 79.610488 174.906972 -43.360404 -3.327160 4.652825 26.847112 3.809480 0.636330 4.677735 0.500889 1.072123 7.432734 0.793388 3.550878 21.871089 2.889021 0.877985 13.982294 -0.898853 1.122422 -11.079024 -1.122196 0.995906 -6.824424 -0.037105 7.838162 -10.200599 -11.035347 61.737825 -66.662531 -38.510347 37.035988 32.000541 -3.568767 -10.416684 -10.560635 -0.838769 -7.848182 -13.469018 8.021927 -48.707763 -56.871135 20.265574 -20.225615 10.790523 14.344496 6.487290 -34.515758 2.132249 -80.911765 84.392783 -84.518394 1.565776 -25.115819 9.760462 0.003351 -0.007526 0.001959 0.024860 -29.405146 -2.018525 146.140545 71.258254 157.646639 -0.571600 -7.132610 -8.819727 0.003003 -0.000059 0.001756
-4.075216 130.386854 79.612036 174.912975 -43.357695 -3.329930 4.597518 26.820614 3.809011 0.649238 4.684418 0.490091 1.084572 7.439730 0.785939 3.511274 21.845006 2.901577 0.934485 13.951541 -0.912789 1.174397 -11.075986 -1.156806 0.953471 -6.759668 -0.039060 7.919688 -10.226622 -11.058728 61.723617 -66.666502 -38.491207 37.016679 31.979949 -3.565915 -10.380476 -10.462480 -0.814393 -7.849303 -13.460392 7.906993 -48.743927 -56.825977 20.424207 -20.212143 10.705473 14.344714 6.484488 -34.517421 2.135493 -80.958441 84.398106 -84.569003 1.556284 -25.122730 9.758353 0.001535 -0.006093 0.000897 0.019830 -29.405968 -2.023814 146.137439 71.260792 157.644320 -0.566639 -7.129709 -8.817483 0.003665 0.000958 0.002143
